<?xml version="1.0" encoding="UTF-8"?>
<svg width="210px" height="93px" viewBox="0 0 210 93" version="1.1" xmlns="http://www.w3.org/2000/svg" xmlns:xlink="http://www.w3.org/1999/xlink">
    <!-- Generator: Sketch 46.2 (44496) - http://www.bohemiancoding.com/sketch -->

    <g id="Page-1" stroke="none" stroke-width="1" fill="none" fill-rule="evenodd">
        <g id="group">
            <g id="Star" transform="translate(65.000000, 0.000000)" fill-rule="nonzero">
                <g id="path-1-link" fill-opacity="0.900000036" fill="#000000">
                    <polygon id="path-1" points="41 64.5 15.725234 77.7877308 20.552285 49.6438654 0.1045698 29.7122692 28.362617 25.6061346 41 0 53.637383 25.6061346 81.89543 29.7122692 61.447715 49.6438654 66.274766 77.7877308"></polygon>
                </g>
                <g id="path-1-link" fill-opacity="0.2" fill="#FFFFFF">
                    <polygon id="path-1" points="41 64.5 15.725234 77.7877308 20.552285 49.6438654 0.1045698 29.7122692 28.362617 25.6061346 41 0 53.637383 25.6061346 81.89543 29.7122692 61.447715 49.6438654 66.274766 77.7877308"></polygon>
                </g>
            </g>
            <g id="Group-8" transform="translate(0.000000, 0.000000)">
                <g id="Star-Copy" transform="translate(34.000000, 1.000000)" fill-rule="nonzero">
                    <g id="path-4-link" fill="#000000">
                        <polygon id="path-4" points="21.2662625 33.5028535 8.1229895 40.4048208 10.6331313 25.7862193 0 15.4332683 14.694626 13.300443 21.2662625 0 27.837899 13.300443 42.532525 15.4332683 31.8993938 25.7862193 34.4095355 40.4048208"></polygon>
                    </g>
                    <g id="path-4-link" fill-opacity="0.3" fill="#FFFFFF">
                        <polygon id="path-4" points="21.2662625 33.5028535 8.1229895 40.4048208 10.6331313 25.7862193 0 15.4332683 14.694626 13.300443 21.2662625 0 27.837899 13.300443 42.532525 15.4332683 31.8993938 25.7862193 34.4095355 40.4048208"></polygon>
                    </g>
                </g>
                <g id="Star-Copy" transform="translate(135.000000, 0.000000)" fill-rule="nonzero">
                    <g id="path-5-link" fill="#000000">
                        <polygon id="path-5" points="21.266263 33.5028535 8.122989 40.4048208 10.633131 25.7862193 0 15.4332683 14.694626 13.300443 21.266263 0 27.837899 13.300443 42.532525 15.4332683 31.899394 25.7862193 34.409536 40.4048208"></polygon>
                    </g>
                    <g id="path-5-link" fill-opacity="0.3" fill="#FFFFFF">
                        <polygon id="path-5" points="21.266263 33.5028535 8.122989 40.4048208 10.633131 25.7862193 0 15.4332683 14.694626 13.300443 21.266263 0 27.837899 13.300443 42.532525 15.4332683 31.899394 25.7862193 34.409536 40.4048208"></polygon>
                    </g>
                </g>
                <g id="Rectangle-10" transform="translate(0.000000, 37.000000)" fill-rule="nonzero">
                    <g id="path-6-link" fill="#FE4C52">
                        <path d="M-7.81597009e-14,2.1683095 C3.88350297,0.7227698 8.27682011,0 13.1799514,0 C17.0916788,0 20.5506697,0.392113 23.556924,1.176339 C24.8519432,1.5141605 25.7554326,2.6825796 25.7554326,4.0195106 L25.755424,25.4158737 C25.755424,27.0179228 24.4707167,28.3247461 22.8671089,28.3539106 C18.9267521,28.425573 14.9863954,28.4614042 11.0460387,28.4614042 C6.14290739,28.4614042 2.70511817,28.5339791 0.732671044,28.6791288 L6.01195865,13.9280302 L-7.81597009e-14,2.1683095 Z" id="path-6"></path>
                    </g>
                    <g id="path-6-link" fill-opacity="0.149999991" fill="#000000">
                        <path d="M-7.81597009e-14,2.1683095 C3.88350297,0.7227698 8.27682011,0 13.1799514,0 C17.0916788,0 20.5506697,0.392113 23.556924,1.176339 C24.8519432,1.5141605 25.7554326,2.6825796 25.7554326,4.0195106 L25.755424,25.4158737 C25.755424,27.0179228 24.4707167,28.3247461 22.8671089,28.3539106 C18.9267521,28.425573 14.9863954,28.4614042 11.0460387,28.4614042 C6.14290739,28.4614042 2.70511817,28.5339791 0.732671044,28.6791288 L6.01195865,13.9280302 L-7.81597009e-14,2.1683095 Z" id="path-6"></path>
                    </g>
                </g>
                <path d="M26.1576193,47.9671525 L26.0048421,63.713007 C25.9969692,64.5244222 25.3320559,65.1758292 24.5197166,65.1679653 C24.2498208,65.1653525 23.9858478,65.0886139 23.7566998,64.9461514 L12,57.6369512 L20.8875608,46.142502 C21.8806892,44.8580704 23.7282022,44.6210067 25.0140966,45.6130054 C25.7433111,46.1755554 26.1665485,47.0468657 26.1576193,47.9671525 Z" id="Rectangle-10" fill-opacity="0.149999991" fill="url(#linearGradient-1)" fill-rule="nonzero"></path>
                <g id="Rectangle-10" transform="translate(196.755432, 49.500000) scale(-1, 1) translate(-196.755432, -49.500000) translate(183.755432, 35.000000)" fill-rule="nonzero">
                    <g id="path-8-link" fill="#FE4C52">
                        <path d="M0,2.1683095 C3.883503,0.7227698 8.27682,0 13.179951,0 C17.091679,0 20.55067,0.392113 23.556924,1.176339 C24.851943,1.5141605 25.755433,2.6825796 25.755433,4.0195106 L25.755424,25.4158737 C25.755424,27.0179228 24.470717,28.3247461 22.867109,28.3539106 C18.926752,28.425573 14.986395,28.4614042 11.046039,28.4614042 C6.142907,28.4614042 2.705118,28.5339791 0.732671,28.6791288 L6.011959,13.9280302 L0,2.1683095 Z" id="path-8"></path>
                    </g>
                    <g id="path-8-link" fill-opacity="0.149999991" fill="#000000">
                        <path d="M0,2.1683095 C3.883503,0.7227698 8.27682,0 13.179951,0 C17.091679,0 20.55067,0.392113 23.556924,1.176339 C24.851943,1.5141605 25.755433,2.6825796 25.755433,4.0195106 L25.755424,25.4158737 C25.755424,27.0179228 24.470717,28.3247461 22.867109,28.3539106 C18.926752,28.425573 14.986395,28.4614042 11.046039,28.4614042 C6.142907,28.4614042 2.705118,28.5339791 0.732671,28.6791288 L6.011959,13.9280302 L0,2.1683095 Z" id="path-8"></path>
                    </g>
                </g>
                <path d="M195.710609,61.6557864 C195.701929,62.5514426 194.96882,63.2704785 194.073163,63.2617981 C193.775586,63.2589141 193.484539,63.1742085 193.231888,63.0169556 C189.460438,60.6695555 186.63185,58.9090054 184.746125,57.7353053 C183.751292,57.1161077 183.751292,54.4462013 184.746125,49.7255859 L190.068479,42.2611163 C191.163467,40.8433353 193.200468,40.5816597 194.618249,41.6766475 C195.422255,42.2976012 195.888901,43.2593708 195.879056,44.2752014 L195.710609,61.6557864 Z" id="Rectangle-10" fill-opacity="0.149999991" fill="url(#linearGradient-2)" fill-rule="nonzero" transform="translate(189.939605, 52.130938) scale(-1, 1) translate(-189.939605, -52.130938) "></path>
                <path d="M14.1233752,32.1393573 C44.2171353,25.3797858 74.3108954,22 104.404656,22 C134.498413,22 164.592171,25.3797852 194.685928,32.1393556 L194.68593,32.1393467 C196.511819,32.5494724 197.809311,34.1707319 197.809311,36.0421144 L197.809311,54.2933687 C197.809311,56.5025079 196.01845,58.2933691 193.809311,58.2933691 C193.519919,58.2933691 193.231381,58.2619638 192.948765,58.1997049 C163.434062,51.6977629 133.919359,48.4467918 104.404656,48.4467918 C74.8899501,48.4467918 45.3752446,51.6977634 15.8605391,58.1997065 L15.8605376,58.1996994 C13.7031318,58.6749652 11.5689298,57.3113213 11.093664,55.1539155 C11.0314052,54.8713 11,54.5827626 11,54.2933707 L11.0000062,36.0421101 C11.0000062,34.1707348 12.2974936,32.5494815 14.1233752,32.1393573 Z" id="Rectangle-10" fill="#FE4C52" fill-rule="nonzero"></path>
                <g id="幸运号" transform="translate(81.000000, 25.000000)" font-size="16" font-family="PingFangSC-Regular, PingFang SC" fill="#FFFFFF" font-weight="normal">
                    <g id="Group">
                        <text id="幸运号">
                            <tspan x="0" y="17">幸运号</tspan>
                        </text>
                    </g>
                </g>
            </g>
        </g>
    </g>
</svg>